<svg xmlns="http://www.w3.org/2000/svg" viewBox="0 0 512 512" width="512" height="512"><path fill="#C5A059" d="M263.4 20.5c-4.2-2-9.1-1.8-13.1 .5l-192 112C44.7 140.9 32 159.2 32 184.1v10.3c0 9.5 2.8 18.7 8.1 26.6l10.8 16.2c6.9 10.3 7 23.8 .3 34.3l-2.6 4.1c-13.8 21.6-20.1 47.9-10.8 72.5c5.1 13.5 13.4 25.5 24.1 35.1c10.7 9.6 23.3 16.5 36.9 20.3l.1 0 .2 0c6.7 1.9 13.8 2.9 20.8 2.9c13.7 0 27.2-3.8 39.2-11l3.5-2.1c8.4-5 18.2-7.7 28-7.7c15.7 0 31.1 6.8 41.5 19.3l2.8 3.4c7.9 9.5 19.5 15.1 31.9 15.1s24-5.6 31.9-15.1l2.8-3.4c10.4-12.5 25.8-19.3 41.5-19.3c9.8 0 19.6 2.6 28 7.7l3.5 2.1c11.9 7.1 25.5 11 39.2 11c7.1 0 14.2-1 20.8-2.9l.2 0 .1 0c13.6-3.8 26.3-10.7 36.9-20.3c10.7-9.6 19-21.6 24.1-35.1c9.3-24.6 3-50.9-10.8-72.5l-2.6-4.1c-6.6-10.5-6.5-23.9 .3-34.3l10.8-16.2c5.3-7.9 8.1-17.1 8.1-26.6V184.1c0-24.9-12.7-43.1-26.3-51.1l-192-112c-4-2.3-8.8-2.5-13.1-.5zM384 192a32 32 0 1 1 0 64 32 32 0 1 1 0-64zm-128-24a32 32 0 1 1 64 0 32 32 0 1 1 -64 0zm0 168a32 32 0 1 1 0 64 32 32 0 1 1 0-64zm-64-112a32 32 0 1 1 64 0 32 32 0 1 1 -64 0z"/></svg>
